<svg id="SvgjsSvg1006" width="288" height="288" xmlns="http://www.w3.org/2000/svg" version="1.1" xmlns:xlink="http://www.w3.org/1999/xlink" xmlns:svgjs="http://svgjs.com/svgjs"><defs id="SvgjsDefs1007"></defs><g id="SvgjsG1008" transform="matrix(1,0,0,1,0,0)"><svg xmlns="http://www.w3.org/2000/svg" width="288" height="288" viewBox="0 0 604.093 567.8"><g transform="matrix(.13333 0 0 -.13333 0 567.8)" fill="#0043eb" class="color000 svgShape"><path fill="#dde7ff" d="m 1440.84,80.3711 h 1041.53 v 803.32 H 1440.84 Z" class="coloreee svgShape"></path><path fill="#c6d6ff" d="m 2221.43,86.0313 c -1.44,0 -2.61,179.0707 -2.61,399.9097 0,220.911 1.17,399.93 2.61,399.93 1.43,0 2.6,-179.019 2.6,-399.93 0,-220.839 -1.17,-399.9097 -2.6,-399.9097" class="colore3e3e2 svgShape"></path><path fill="#fafbff" d="m 2314.22,172.949 h 79.8398 v 90.2617 H 2314.22 Z" class="colorfcfdfd svgShape"></path><path fill="#c6d6ff" d="M1758.58 881.621v-171.41h118.31v171.41h-118.31M1758.58 254.172V82.75h118.31v171.422h-118.31" class="colore3e3e2 svgShape"></path><path fill="#dde7ff" d="m 3058.94,72.1992 h 1313.25 v 1012.9 H 3058.94 Z" class="coloreee svgShape"></path><path fill="#c6d6ff" d="m 4043.16,79.3516 c -1.44,0 -2.6,225.7774 -2.6,504.2184 0,278.539 1.16,504.27 2.6,504.27 1.44,0 2.6,-225.731 2.6,-504.27 0,-278.441 -1.16,-504.2184 -2.6,-504.2184" class="colore3e3e2 svgShape"></path><path fill="#fafbff" d="M 4260.84,188.941 H 4160.16 V 302.75 h 100.68 V 188.941" class="colorfcfdfd svgShape"></path><path fill="#c6d6ff" d="M3459.57 866.359h149.168v216.129H3459.57zM3459.57 75.2109h149.168v216.141H3459.57z" class="colore3e3e2 svgShape"></path><path fill="#dde7ff" d="M585.34 1055.3c53.152 27.42 115.738 30.99 174.75 21.23 31.699-5.23 64.75-14.71 86.32-38.53 21.57-23.81 25.66-65.719.891-86.18-14.746-12.179-35.309-14.031-54.43-13.808-46.195.539-97.449 8.679-134.351-19.121-21.059-15.852-35.071-42.219-60.247-50.012-24.625-7.641-52.421 6.902-65.48 29.133-13.055 22.218-13.496 50.008-7.406 75.066 0 0 6.41 54.602 59.953 82.222M463.566 1290.38c32.5-46.42 95.668-31.05 124.961-2.71 29.286 28.33 41.664 69.39 52.934 108.55 25.746 89.48 51.711 183.34 32.562 274.45-5.726 27.25-15.906 54.42-35.054 74.62-19.141 20.22-48.574 32.24-75.489 25.13-31.847-8.42-51.644-39.61-65.949-69.29-42.058-87.22-64.32-183.92-64.652-280.76-.16-45.22 5.172-92.66 30.687-129.99M374.313 1223.77c35.289 41.88 41.988 102.97 26.285 155.44-15.703 52.47-51.176 97.1-92.063 133.54-47.937 42.73-104.281 75.97-164.859 97.27-23.836 8.38-48.9846 14.99-74.133 12.6C44.3867 1620.21 19.0547 1607.35 7.32031 1584.97-10.0273 1551.88 6.60547 1511.75 24.5938 1479 56.293 1421.32 92.5352 1366.13 132.871 1314.12c32.457-41.85 69.637-83.11 119.098-102.02 49.457-18.92 100.84-16.69 127.054 17.61" class="coloreee svgShape"></path><path fill="#c6d6ff" d="m 461.363,590.148 c 0.61,-0.039 1.598,7.481 2.938,21.09 1.5,15.352 3.375,34.633 5.605,57.563 2.684,24.23 6.223,53.051 12.949,84.441 6.708,31.309 17.208,65.238 30.692,99.649 13.961,34.218 30.988,65.3 50.887,90.179 19.757,24.981 42.734,43.051 64.336,53.481 21.531,10.639 40.835,14.949 54.179,16.869 13.457,1.38 20.996,2.44 21,3.04 0.008,0.6 -7.543,0.7 -21.371,0.33 -13.695,-0.91 -33.805,-4.39 -56.492,-14.7 C 603.32,991.992 578.945,973.629 558.219,948.129 537.324,922.75 519.68,890.969 505.469,856.148 491.754,821.129 481.406,786.852 475,754.859 c -6.391,-31.929 -9.316,-61.07 -11.227,-85.5 -1.828,-24.437 -2.515,-44.23 -2.847,-57.918 -0.309,-13.679 -0.153,-21.261 0.437,-21.293" class="colore3e3e2 svgShape"></path><path fill="#c6d6ff" d="m 465.332,634.43 c 0.301,0.019 0.484,3.39 0.566,9.8 -0.019,7.352 -0.043,16.61 -0.074,27.989 -0.066,24.281 -0.058,59.441 1.246,102.84 2.149,86.8 9.625,180.23 24.059,311.951 13.672,123.86 32.019,268 51.387,361.71 4.152,21.32 8.336,40.5 12.269,57.29 3.758,16.83 6.957,31.34 10.055,43.09 2.656,11.06 4.82,20.06 6.543,27.2 1.402,6.25 1.996,9.58 1.711,9.66 -0.289,0.08 -1.453,-3.08 -3.406,-9.18 -2.133,-7.04 -4.821,-15.91 -8.125,-26.82 -3.602,-11.63 -7.293,-26.04 -11.512,-42.81 -4.395,-16.73 -9.008,-35.86 -13.555,-57.14 -19.16,-84.92 -39.445,-203.6 -54.019,-335.64 -14.469,-131.991 -20.989,-252.159 -21.563,-339.19 -0.519,-43.52 0.41,-78.739 1.52,-103.051 0.699,-11.367 1.261,-20.629 1.707,-27.969 0.488,-6.39 0.89,-9.738 1.191,-9.73" class="colore3e3e2 svgShape"></path><path fill="#c6d6ff" d="m 465.914,866.23 c 0.602,0.032 0.496,10.411 -0.203,29.239 -1.082,18.793 -3.664,45.953 -8.957,79.222 -5.609,33.179 -13.449,72.579 -25.762,115.399 -5.336,19.58 -17.875,66.48 -48.258,136.56 -40.035,94.96 -94.418,172.6 -141.726,220.68 -11.102,12.77 -23.457,21.98 -33.34,31 -5.117,4.33 -9.641,8.63 -14.242,12.05 -4.629,3.19 -8.942,6.16 -12.938,8.92 -15.57,10.65 -24.293,16.27 -24.613,15.76 -1.398,-1.91 34.879,-23.25 80.68,-71.98 45.621,-48.63 98.484,-125.73 138.187,-219.89 22.141,-51.07 37.578,-96.63 48.535,-135.3 12.657,-42.4 21.059,-81.41 27.411,-114.269 6.035,-32.922 9.531,-59.801 11.64,-78.43 1.738,-18.64 2.985,-28.98 3.586,-28.961" class="colore3e3e2 svgShape"></path><path fill="#dde7ff" d="M226.355 492.559l23.227-318.207h408.793l23.227 318.207H226.355M186.867 617.98V492.559H730.379V617.98H186.867" class="coloreee svgShape"></path><path fill="#c6d6ff" d="M 186.867,186.52 V 151.762 H 721.398 V 186.52 H 186.867" class="colore3e3e2 svgShape"></path><path fill="#c6d6ff" d="m 237.438,94.4219 -25.032,61.1871 h 489.52 L 672.719,94.4219 H 237.438" class="colore3e3e2 svgShape"></path><path fill="#f2f6ff" d="M674.008 388.551c.094-.063-.555-1.063-1.903-2.922-1.621-2.141-3.632-4.809-6.109-8.09-5.805-7.43-13.777-17.641-23.812-30.48l-1.059-1.36-1.027 1.422c-14.965 20.699-34.965 48.359-58.504 80.918h3.367c-17.406-24.641-36.793-52.09-57.602-81.57l-1.804-2.547-2.024 2.41c-21.261 25.289-44.347 52.75-68.316 81.27l3.941.058c-1.187-1.5-2.468-3.109-3.761-4.73-21.184-26.559-41.688-52.27-61.082-76.571l-2.036-2.558-1.879 2.648C369.66 375.801 350.285 403.211 332.77 428l3.347-.16c-28.398-32.36-52.484-59.801-70.969-80.871l-1.261-1.43-.961 1.621c-9.356 15.711-16.817 28.25-22.227 37.332-2.32 4.059-4.199 7.328-5.699 9.938-1.262 2.281-1.852 3.48-1.742 3.55.105.071.918-1.011 2.383-3.16 1.656-2.511 3.734-5.66 6.308-9.558 5.672-8.922 13.504-21.231 23.324-36.66l-2.214.179c18.187 21.328 41.886 49.098 69.832 81.848l1.761 2.07 1.594-2.219c17.676-24.679 37.227-51.968 58.145-81.179l-3.911.097c19.344 24.352 39.797 50.102 60.938 76.704 1.289 1.609 2.57 3.226 3.758 4.718l1.945 2.442 1.996-2.391c23.903-28.57 46.922-56.09 68.121-81.441l-3.824-.141c21.02 29.313 40.602 56.633 58.176 81.152l1.707 2.368 1.664-2.368c23.043-32.921 42.617-60.882 57.269-81.812l-2.082.07c10.438 12.512 18.735 22.461 24.774 29.699 2.691 3.114 4.875 5.641 6.637 7.684 1.527 1.707 2.359 2.547 2.449 2.469M687.293 494.66c0-1.41-102.434-2.551-228.758-2.551-126.371 0-228.777 1.141-228.777 2.551 0 1.399 102.406 2.539 228.777 2.539 126.324 0 228.758-1.14 228.758-2.539" class="colorf8f8f9 svgShape"></path><path fill="#c6d6ff" d="m 3557.16,3685.99 -83.8,-0.45 -2.24,417 83.8,0.44 2.24,-416.99" class="colore3e3e2 svgShape"></path><path fill="#dde7ff" d="m 2963.37,3871.69 -217.01,-1.16 -1.24,230.2 217.02,1.16 1.23,-230.2" class="coloreee svgShape"></path><path fill="#f2f6ff" d="m 3179.36,3872.85 -217.02,-1.17 -1.24,230.21 217.03,1.16 1.23,-230.2" class="colorf8f8f9 svgShape"></path><path fill="#c6d6ff" d="m 2745.46,4037.16 c 144.22,-1.2 288.8,-0.36 433.01,1.99 2.97,0.05 2.95,4.59 -0.03,4.61 -144.22,0.79 -288.8,0.09 -433,-2.65 -2.54,-0.05 -2.53,-3.93 0.02,-3.95" class="colore3e3e2 svgShape"></path><path fill="#dde7ff" d="m 3005.1,3687.93 -394.28,-2.11 -1,187.6 394.27,2.11 1.01,-187.6" class="coloreee svgShape"></path><path fill="#f2f6ff" d="m 3397.52,3690.03 -394.29,-2.12 -1,187.61 394.28,2.11 1.01,-187.6" class="colorf8f8f9 svgShape"></path><path fill="#c6d6ff" d="M2610.1 3821.24c261.92-2.96 524.77-.31 786.7 3.89 2.96.05 2.95 4.59-.03 4.6-261.95 1.39-524.82 1.23-786.69-4.53-2.55-.06-2.53-3.93.02-3.96M3990.22 3618.6H2462.65v67.22h1527.57v-67.22" class="colore3e3e2 svgShape"></path><path fill="#c6d6ff" d="M2774.76 3424.16h-62.02v229.34h62.02v-229.34M3700.46 3424.16h-62.01v229.34h62.01v-229.34" class="colore3e3e2 svgShape"></path><path fill="#dde7ff" d="m 3639.78,3684.97 -83.8,-0.45 -3.08,573.51 83.8,0.45 3.08,-573.51" class="coloreee svgShape"></path><path fill="#f2f6ff" d="m 3770.14,3686.96 -130.22,-0.7 -2.49,464.76 130.22,0.7 2.49,-464.76" class="colorf8f8f9 svgShape"></path><path fill="#c6d6ff" d="M3766.77 4062.18c0-1.24-29.15-2.25-65.11-2.25-35.97 0-65.11 1.01-65.11 2.25 0 1.25 29.14 2.26 65.11 2.26 35.96 0 65.11-1.01 65.11-2.26M3766.77 4081.71c0-1.25-29.15-2.26-65.11-2.26-35.97 0-65.11 1.01-65.11 2.26 0 1.24 29.14 2.25 65.11 2.25 35.96 0 65.11-1.01 65.11-2.25M3766.77 3756.88c0-1.25-29.15-2.25-65.11-2.25-35.97 0-65.11 1-65.11 2.25 0 1.25 29.14 2.26 65.11 2.26 35.96 0 65.11-1.01 65.11-2.26M3766.77 3776.41c0-1.25-29.15-2.26-65.11-2.26-35.97 0-65.11 1.01-65.11 2.26 0 1.24 29.14 2.25 65.11 2.25 35.96 0 65.11-1.01 65.11-2.25M3703.76 3819.01c-1.25 0-2.26 46.89-2.26 104.72 0 57.84 1.01 104.73 2.26 104.73 1.24 0 2.26-46.89 2.26-104.73 0-57.83-1.02-104.72-2.26-104.72" class="colore3e3e2 svgShape"></path><path fill="#dde7ff" d="m 3909.92,3686.79 h -141.75 v 350.8 h 141.75 v -350.8" class="coloreee svgShape"></path><path fill="#c6d6ff" d="M3617.66 4160.57c0-13.31-10.78-24.09-24.09-24.09-13.31 0-24.09 10.78-24.09 24.09 0 13.3 10.78 24.08 24.09 24.08 13.31 0 24.09-10.78 24.09-24.08M3601.02 3753.14h-14.9v341.18h14.9v-341.18" class="colore3e3e2 svgShape"></path><path fill="#00164d" d="M4417.3 77.6797c0-1.4414-961.14-2.5977-2146.47-2.5977-1185.75 0-2146.674 1.1563-2146.674 2.5977 0 1.4414 960.924 2.6016 2146.674 2.6016 1185.33 0 2146.47-1.1602 2146.47-2.6016M1262.81 3747.69c46.94-56.96 72.98-130.77 72.18-204.58-.46-42.17-8.23-88.69 16.31-123 18.62-26.04 52.58-39.07 67.71-67.29 18.19-33.93 2.68-76.78 13.88-113.62 15.87-52.23 77.03-74.06 113.3-114.85 31.45-35.37 43.09-87.13 30.42-132.74-12.66-45.6-49.03-83.77-93.76-99.24-24.02-8.31-51.47-10.1-74.22 1.24-24.53 12.22-39.68 37.31-51.97 61.81-24.15 48.15-235.87 308.72-247.86 361.24M1108.8 3809.12c-86.57 13.93-169.78-43.55-206.253-123.28-36.477-79.75-37.477-170.43-40.168-258.09-2.691-87.64-8.844-179.14-53.59-254.56-28.394-47.86-72.367-89.85-79.266-145.07-6.171-49.45 19.422-99.25 10.926-148.35-7.398-42.75-39.976-79.94-38.687-123.31 1.554-52.17 55.215-91.48 107.39-92.87 52.172-1.4 100.918 25.94 141.821 58.35 66.367 52.6 120.167 120.96 155.687 197.83" class="color1d2a30 svgShape"></path><path fill="#8fafff" d="m 966.371,3602.66 c -11.433,91.3 54.609,174.74 147.319,183.57 87.38,8.33 165.04,-56.73 178.14,-143.53 11.48,-76.08 21.34,-152.89 20.99,-180.78 -1.07,-84.12 -50.29,-116.87 -70.24,-126.7 -4.55,-2.24 -17.11,-4.79 -22.13,-5.51 l -0.47,-0.65 18.68,-96.56 c 8.46,-63.27 -26.85,-119.69 -90.01,-128.9 -63.38,-9.24 -112.92,39.35 -122.59,102.66 l -59.689,396.4" class="colorf9ad95 svgShape"></path><path fill="#00164d" d="M1274.62 3605.86c-1.39-1.97-12.5 3.98-26.73 1.87-14.25-1.91-23.63-10.75-25.43-9.23-.87.66.35 4.02 4.42 7.99 3.99 3.95 11.17 8.27 20.04 9.53 8.88 1.24 16.82-.93 21.59-3.65 4.87-2.72 6.81-5.63 6.11-6.51M1148 3575.09c-1.39-1.96-12.51 3.99-26.73 1.88-14.25-1.91-23.63-10.76-25.43-9.24-.87.66.33 4.02 4.41 8 4 3.95 11.17 8.27 20.04 9.53 8.88 1.24 16.82-.94 21.6-3.65 4.85-2.73 6.8-5.63 6.11-6.52M1199.91 3498.76c-.18.8 8.45 3.62 22.52 7.54 3.58.91 6.92 2.13 7.17 4.7.47 2.75-1.62 6.45-4 10.43-4.7 8.3-9.62 17-14.79 26.11-20.68 37.25-36.21 68.09-34.7 68.91 1.5.82 19.49-28.71 40.17-65.95 5-9.2 9.79-17.96 14.36-26.35 1.97-3.93 5.02-8.27 3.96-13.99-.58-2.87-2.96-5.22-5.2-6.2-2.23-1.05-4.27-1.38-6.05-1.75-14.32-2.89-23.27-4.25-23.44-3.45" class="color1d2a30 svgShape"></path><path fill="#5585ff" d="m 1219.87,3329.63 c 0,0 -54.32,-12.52 -129.11,18.78 0,0 32.29,-69.51 134.14,-44.8 l -5.03,26.02" class="colorf6865e svgShape"></path><path fill="#00164d" d="M1140.84 3612.39c-.84-4.07-15.33-4.31-31.74-8.76-16.5-4.12-29.26-10.97-31.98-7.83-1.24 1.52.58 5.51 5.48 10.06 4.86 4.52 12.95 9.34 22.82 11.91 9.87 2.56 19.28 2.31 25.73.72 6.49-1.58 10.02-4.17 9.69-6.1M1262.95 3637.41c-2.04-3.6-12.34-1.68-24.16-3.24-11.87-1.14-21.47-5.35-24.26-2.3-1.24 1.49-.14 4.97 3.78 8.66 3.85 3.68 10.68 7.22 18.82 8.16 8.14.92 15.6-.99 20.18-3.7 4.65-2.72 6.51-5.85 5.64-7.58M1117.14 3556.71c.98-6.18 7.02-10.46 13.49-9.55 6.47.89 10.93 6.62 9.95 12.81-.97 6.18-7.01 10.46-13.48 9.56-6.47-.9-10.93-6.64-9.96-12.82M1243.22 3583.98c.97-6.18 7.01-10.45 13.48-9.55 6.46.9 10.93 6.63 9.95 12.81-.97 6.18-7.02 10.46-13.48 9.56-6.47-.9-10.93-6.64-9.95-12.82" class="color1d2a30 svgShape"></path><path fill="#5585ff" d="m 1222.31,3471.04 c -9.16,2.65 -17.05,-1.99 -20.77,-8.63 -3.72,-6.65 -2.83,-15.73 2.52,-21.14 5.35,-5.43 14.88,-6.28 20.78,-1.48 4.01,3.26 6.02,8.47 6.53,13.6 0.48,4.75 -0.3,9.83 -3.23,13.6 -2.93,3.76 -8.35,5.79 -12.71,3.85" class="colorf6865e svgShape"></path><path fill="#00164d" d="m 1280.73,3710.76 c -6.52,31.64 -28.3,58.63 -54.82,77.07 -22.53,15.67 -49.18,26.03 -76.6,26.87 -27.43,0.84 -55.54,-8.38 -75.36,-27.37 -14.65,-14.03 -22.15,-33.9 -22.84,-54.17 l 1.6,13.99 c -4.12,-11.49 -4.11,-23.95 0.17,-35.24 l 0.02,-0.07 -0.01,0.05 c 2.32,-6.12 5.1,-12.25 7.56,-18.39 7,-17.48 20.56,-32.23 37.39,-40.68 7.75,-3.89 16.34,-6.5 25,-6.09 8.66,0.41 17.4,4.14 22.66,11.04 7.51,9.85 6.64,23.51 5.42,35.84 7.44,-11.62 15.34,-23.67 27.29,-30.56 11.96,-6.87 29.24,-6.63 37.65,4.3 8.15,10.59 4.93,25.8 0.21,38.29 7.64,-11.65 18.59,-21.11 31.23,-26.98 6.99,-3.25 15.23,-5.39 22.32,-2.33 6,2.6 10.04,8.61 11.58,14.97 1.53,6.36 0.85,13.06 -0.47,19.46" class="color1d2a30 svgShape"></path><path fill="#002b98" d="m 1208.47,3684.64 c -0.9,-0.03 -0.75,11.86 -4.6,30.3 -3.86,18.13 -13.04,43.75 -34.53,62.69 -10.59,9.35 -22.77,15.82 -34.6,18.68 -11.85,2.93 -23.13,2.58 -32.2,0.81 -18.39,-3.74 -27.3,-12.47 -27.85,-11.55 -0.18,0.2 1.74,2.54 6.14,5.72 4.37,3.18 11.42,7 20.9,9.42 9.46,2.34 21.4,3.13 34.11,0.27 12.72,-2.8 25.77,-9.57 36.95,-19.45 22.72,-20.04 31.7,-47.21 34.7,-65.9 1.53,-9.53 1.87,-17.32 1.8,-22.68 -0.07,-5.36 -0.49,-8.31 -0.82,-8.31" class="color365462 svgShape"></path><path fill="#8fafff" d="m 2129.47,2518.73 -384.51,152.43 c 0,0 -196.98,258.31 -192.87,263.32 L 1413.83,2783.06 1614.79,2511.01 2080.45,2402 2301,2400.22 c -17.06,84.83 -171.53,118.51 -171.53,118.51" class="colorf9ad95 svgShape"></path><path fill="#2764ff" d="m 1291.4,3255.61 -52.36,20.3 -226.2,-28.69 v -39.96 l -6.48,-0.8 c 0,0 -70.262,-12.77 -138.571,-53.78 -82.715,-49.66 -125.703,-145.44 -110.383,-240.7 9.199,-57.2 27.032,-126.73 61.383,-166.91 65.695,-76.85 125.695,18.13 125.695,18.13 0,0 41.235,-94.06 38.868,-138.54 -1.989,-37.25 -18.465,-114.87 -23.762,-139.11 -0.895,-4.09 1.789,-8.03 5.902,-8.79 l 477.188,-88.22 2.33,116.63 -15.18,479.72 -21.05,186.31 c 0,0 0.66,89.01 -117.38,84.41" class="colorf03658 svgShape"></path><path fill="#2764ff" d="M 1401.46,3202.2 1583.4,2939.32 1436.92,2760.88 Z" class="colorf03658 svgShape"></path><path fill="#00164d" d="m 1440.46,2648.99 c -0.36,0.01 -0.6,6.05 -0.71,16.97 -0.15,11.79 -0.34,27.36 -0.58,46.19 -0.94,38.96 -3.14,92.83 -10.9,151.77 -7.54,58.97 -19,111.66 -27.77,149.65 -4.31,18.33 -7.88,33.5 -10.57,44.97 -2.5,10.63 -3.71,16.56 -3.36,16.65 0.34,0.09 2.22,-5.65 5.32,-16.13 3.11,-10.47 7.33,-25.7 12.19,-44.62 9.7,-37.82 21.78,-90.6 29.35,-149.86 7.8,-59.2 9.42,-113.34 9.42,-152.39 -0.19,-19.55 -0.47,-35.35 -1.08,-46.27 -0.5,-10.91 -0.95,-16.94 -1.31,-16.93" class="color1d2a30 svgShape"></path><path fill="#fafbff" d="M992.758 3048.7c-.028-.84-13.809-.67-35.961-1.85-22.149-1.17-52.684-4.2-85.801-11.03-33.113-6.89-62.348-16.23-83.133-23.97-20.8-7.71-33.375-13.34-33.734-12.58-.16.33 2.824 2.07 8.367 4.96 5.516 2.93 13.715 6.74 24.024 11.05 20.585 8.67 49.96 18.68 83.421 25.64 33.457 6.9 64.395 9.38 86.731 9.61 11.172.13 20.211-.11 26.437-.61 6.235-.44 9.661-.86 9.649-1.22M1414.21 2928.34c.1-.66-8.52-2.75-22.69-4.92-14.15-2.18-33.87-4.27-55.73-5.03-21.87-.74-41.69 0-55.96 1.2-14.28 1.2-23.02 2.69-22.96 3.37.06.76 8.9.56 23.15.31 14.24-.26 33.9-.41 55.59.32 21.69.76 41.29 2.25 55.48 3.48 14.19 1.23 23 2.03 23.12 1.27M1497.74 3047.32c.92-.96-15.19-17.06-39.04-31.57-23.79-14.63-45.45-21.64-45.89-20.37-.57 1.42 19.84 10.45 43.17 24.81 23.4 14.23 40.74 28.3 41.76 27.13M1424.2 3169.21c.89-.88-20.56-20.18-52.99-33.78-32.34-13.83-61.12-15.81-61.13-14.55-.28 1.6 27.55 5.83 59.1 19.35 31.66 13.26 54.06 30.3 55.02 28.98M1434.13 2724.83c.14-.33-3.23-2.08-9.45-4.96-6.2-2.94-15.4-6.71-26.93-10.94-23.02-8.47-55.79-17.92-92.89-23.66-37.12-5.66-71.22-6.48-95.73-5.3-12.26.56-22.16 1.4-28.96 2.34-6.8.88-10.54 1.54-10.5 1.9.08.85 15.17-.37 39.55-.57 24.38-.22 58.1 1.17 94.85 6.78 36.74 5.68 69.31 14.47 92.49 22 23.21 7.51 37.23 13.2 37.57 12.41M1437.83 2589.25c.08-.16-1.39-.99-4.26-2.41-3.45-1.64-7.62-3.62-12.67-6.02-11-5.22-27.29-11.99-47.69-19.61-20.37-7.71-45.09-15.68-72.88-23.32-27.85-7.36-58.83-14.23-91.68-19.43-32.91-5-64.51-7.84-93.29-9.27-28.8-1.14-54.77-1.03-76.53.15-21.75 1.08-39.322 2.6-51.389 4.24-5.527.76-10.113 1.38-13.886 1.89-3.168.49-4.821.83-4.797 1.01.023.18 1.711.18 4.914.03 3.797-.25 8.402-.55 13.965-.91 12.093-1.02 29.653-1.97 51.333-2.59 21.68-.7 47.52-.42 76.15.98 28.62 1.67 60.01 4.64 92.73 9.61 32.67 5.17 63.48 11.86 91.26 18.93 27.7 7.34 52.41 14.91 72.86 22.14 20.47 7.16 36.92 13.39 48.14 18.02 5.19 2.03 9.49 3.72 13.03 5.1 3 1.12 4.62 1.62 4.69 1.46" class="colorfcfdfd svgShape"></path><path fill="#2764ff" d="M 560.402,463.43 506.352,219.09 407.883,38.1719 c -7.098,-13.043 -1.664,-29.36331 11.824,-35.55081 7.555,-3.472653 16.246,-3.109371 23.449,1.05079 45.809,26.47652 213.856,124.68012 216.813,142.77712 3.422,20.973 74.117,253.949 74.117,253.949 L 560.402,463.43" class="colorf03658 svgShape"></path><path fill="#ffffff" d="m 430.98,0 c -3.855,0 -7.718,0.871094 -11.273,2.62109 v 0 c 3.426,-1.58203 7.09,-2.359371 10.738,-2.359371 4.395,0 8.774,1.136721 12.711,3.410161 22.371,12.92972 73.899,42.96872 121.114,72.42972 0.043,0 0.132,0 0.175,0 C 534.164,57.1211 494.73,33.1602 443.887,3.49219 439.918,1.17188 435.453,0 430.98,0 m 138.356,79.2695 c 8.156,5.1211 16.156,10.1993 23.805,15.1524 h 0.132 c -7.171,-4.6211 -15.074,-9.6719 -23.781,-15.1524 -0.043,0 -0.113,0 -0.156,0" class="colorfff svgShape"></path><path fill="#eef3ff" d="M593.273 94.4219h-.132c29.925 19.3791 54.586 36.7581 63.394 46.5581-2.59-4.082-5.937-7.671-9.918-10.539-9.109-6.582-25.754-18.211-53.344-36.0191M662.215 155.609h-.137c.551 2.129 1.188 4.551 1.91 7.243h.008l-1.781-7.243M660.598 149.539c.367 1.633.867 3.672 1.48 6.07h.137l-.75-3.05c-.25-1.02-.539-2.028-.867-3.02" class="colorf6f7f7 svgShape"></path><path fill="#5384ff" d="m 564.445,76.1016 c -0.043,0 -0.132,0 -0.175,0 1.695,1.0586 3.386,2.1172 5.066,3.1679 0.043,0 0.113,0 0.156,0 -1.652,-1.039 -3.34,-2.0976 -5.047,-3.1679" class="colora5adad svgShape"></path><path fill="#a2bcff" d="M430.445.261719c-3.648 0-7.312.777341-10.738 2.359371L663.996 162.852c-.73-2.692-1.367-5.114-1.918-7.243-.613-2.398-1.113-4.437-1.48-6.07-1.008-3.019-2.371-5.898-4.063-8.559-8.808-9.8-33.469-27.179-63.394-46.5581-7.649-4.9531-15.649-10.0313-23.805-15.1524-1.68-1.0507-3.371-2.1093-5.066-3.1679C517.055 46.6406 465.527 16.6016 443.156 3.67188 439.219 1.39844 434.84.261719 430.445.261719M638.461 225.039c-6.035 0-12.117 3.981-14.063 9.781-2.261 6.762 1.313 14.828 7.61 18.071l-.016-.012c1.684 1.121 3.672 1.621 5.742 1.621 5.731 0 12.106-3.82 14.465-8.898 3.211-6.911-2.207-17.223-9.375-19.813-1.414-.508-2.886-.75-4.363-.75" class="colorf9a8bf svgShape"></path><path fill="#00164d" d="M501.305 95.1719c-1.539-.3399-3.899 13.7381-16.676 24.1371-12.461 10.773-26.723 10.632-26.664 12.203-.063.66 3.476 1.789 9.359 1.187 5.84-.539 13.864-3.347 20.84-9.179 6.953-5.848 11.125-13.27 12.68-18.918 1.613-5.6918 1.109-9.3832.461-9.4301M476.012 66.8711c-1.418-.7695-7.278 9.0586-18.965 15.7383-11.539 6.9414-22.965 7.2695-22.984 8.8711-.395 1.4179 12.57 3.7109 25.765-4.1407 13.281-7.6914 17.61-20.121 16.184-20.4687M543.762 128.969c-1.422-.867-10.367 14.273-27.629 26.261-17.078 12.258-34.336 15.622-33.988 17.25-.075 1.399 18.808.34 37.156-12.75 18.484-12.91 25.797-30.359 24.461-30.761M566.398 201.871c-1.007-1.281-13.058 7.609-30.371 12.527-17.254 5.161-32.191 4.122-32.343 5.762-.383 1.34 15.324 5.02 33.879-.48 18.593-5.328 29.878-16.86 28.835-17.809M584.078 273.199c-1.098-1.219-12.609 10.192-31.269 13.871-18.579 4.102-33.692-1.738-34.211-.191-.274.609 3.125 3.012 9.527 4.883 6.348 1.867 15.777 2.769 25.805.687 10.019-2.109 18.3-6.707 23.371-10.98 5.113-4.258 7.269-7.828 6.777-8.27M556.566 300.551c-.304.058-.058 3.469 1.926 9.269 1.981 5.758 5.817 14 13.219 22.289 3.73 3.871 7.891 9 15.457 10.539 3.77.793 8.645-1.078 10.734-5 2.09-3.828 2.016-8.039 1.153-11.918-4.039-15.359-20.946-27.031-38.84-24.988-17.891 2.36-31.231 16.18-34.863 31.188-.664 3.82-.668 8.3 2.226 11.949 2.867 3.691 8.215 4.133 11.551 2.672 6.949-2.852 10.48-8.121 13.965-12.242 6.722-8.789 10.168-17.137 11.953-22.95 1.785-5.847 1.984-9.25 1.672-9.32-1.004-.43-3.211 13.441-16.656 29.82-3.45 3.86-7.356 8.641-12.434 10.391-2.473.871-4.899.398-6.301-1.422-1.41-1.738-1.648-4.906-1-7.937 3.152-12.332 15.383-24.93 30.535-26.7 15.063-1.863 29.91 8.418 33.274 20.75.765 2.981.707 6.18-.453 8.348-1.145 2.133-3.418 3.211-5.883 2.84-5.199-.738-9.621-5.07-13.258-8.68-14.617-15.328-16.953-29.41-17.977-28.898" class="color1d2a30 svgShape"></path><path fill="#638fff" d="m 719.332,351.52 v 0 c 8.676,28.851 14.754,48.878 14.754,48.878 v 0 L 719.332,351.52" class="colorb2b1b0 svgShape"></path><path fill="#4378ff" d="m 546.848,402.16 7.25,34.75 6.304,26.52 -13.554,-61.27" class="colora2a1a0 svgShape"></path><path fill="#0041e4" d="m 719.332,351.52 -176.926,29.351 4.442,21.289 13.554,61.27 173.684,-63.032 c 0,0 -6.078,-20.027 -14.758,-48.878" class="colorbc283b svgShape"></path><path fill="#2764ff" d="m 1350.96,373.012 -14.61,-195.25 c 0,0 193.54,-80.4104 194.36,-116.7503 l -379.58,14.7188 10.28,305.1405 189.55,-7.859" class="colorf03658 svgShape"></path><path fill="#a2bcff" d="m 1222.62,169.77 c -6.64,0 -13.16,5.101 -14.41,11.718 -1.32,7.012 3.32,14.512 10,16.871 1.33,0.641 2.77,0.93 4.25,0.93 6.16,0 12.95,-5.027 14.76,-10.891 2.24,-7.289 -4.53,-16.769 -11.98,-18.359 -0.87,-0.187 -1.75,-0.269 -2.62,-0.269" class="colorf9a8bf svgShape"></path><path fill="#ffffff" d="m 1530.71,61.0117 -372.4,14.4375 v 0 l 372.4,-14.4375 v 0 c -0.1,4.2071 -2.78,9.0196 -7.46,14.2266 0.44,0 0.91,0 1.36,0 3.8,-3.4688 7.27,-8.3867 6.1,-14.2266" class="colorfff svgShape"></path><path fill="#5384ff" d="m 1524.61,75.2383 c -0.45,0 -0.92,0 -1.36,0 -1.15,1.2734 -2.41,2.5703 -3.78,3.8906 1.49,-0.9492 3.35,-2.2578 5.14,-3.8906" class="colora5adad svgShape"></path><path fill="#a2bcff" d="m 1530.71,61.0117 -372.4,14.4375 -7.18,0.2813 2.24,30.7185 363.1,-25.6092 c 0,0 1.24,-0.6015 3,-1.7109 1.37,-1.3203 2.63,-2.6172 3.78,-3.8906 4.68,-5.207 7.36,-10.0195 7.46,-14.2266" class="colorf9a8bf svgShape"></path><path fill="#00164d" d="M1342.57 179.461c-.13-1.852-9.43-2.332-18.78-7.941-9.5-5.36-14.51-13.211-16.19-12.411-1.69.43 1.5 11.411 12.95 17.993 11.37 6.687 22.49 4.039 22.02 2.359M1381.75 161.441c.36-1.8-7.79-4.64-14.4-12.242-6.82-7.398-8.74-15.808-10.58-15.668-1.75-.222-2.61 10.688 5.77 19.981 8.31 9.347 19.24 9.707 19.21 7.929M1402.51 112.922c-1.7-.332-3.92 9.027 1.24 19 5.08 10 13.98 13.668 14.7 12.09.99-1.563-4.85-6.782-8.96-15.043-4.29-8.141-5.13-15.93-6.98-16.047M1340.97 224.328c-.84-1.656-9.25 1.223-19.75.91-10.51-.078-18.8-3.289-19.71-1.656-1.02 1.379 7.21 7.93 19.59 8.117 12.37.281 20.83-5.957 19.87-7.371" class="color1d2a30 svgShape"></path><path fill="#638fff" d="m 1158.97,308.48 v 0 l 1.26,40.231 0.1,-0.012 -1.36,-40.219" class="colorb2b1b0 svgShape"></path><path fill="#0041e4" d="m 1345.46,299.539 -186.49,8.941 1.36,40.219 187.68,-14.359 -2.55,-34.801" class="colorbc283b svgShape"></path><path fill="#00164d" d="m 1343.19,263.77 c -0.01,-0.77 -7.38,-1.629 -19.01,0.832 -5.79,1.238 -12.57,3.41 -19.65,6.878 -3.53,1.739 -7.14,3.801 -10.69,6.211 -1.71,1.207 -3.74,2.418 -5.57,4.7 -1.98,2.007 -2.95,6.968 -0.47,9.89 2.06,2.848 5.55,3.969 8.29,3.93 2.8,-0.02 5.04,-0.672 7.09,-1.262 4.19,-1.187 8.1,-2.75 11.66,-4.519 7.13,-3.578 12.86,-7.981 17.08,-12.18 8.5,-8.488 11.23,-15.539 10.59,-15.879 -0.87,-0.57 -4.93,5.391 -13.63,12.469 -4.34,3.531 -9.91,7.211 -16.58,10.219 -3.34,1.48 -6.96,2.781 -10.79,3.793 -3.98,1.207 -7.39,1.359 -8.5,-0.383 -0.4,-0.668 -0.46,-0.93 0.34,-2.137 0.83,-1.133 2.41,-2.25 4.09,-3.434 3.27,-2.32 6.58,-4.359 9.82,-6.128 6.5,-3.551 12.74,-6.028 18.11,-7.758 10.75,-3.453 17.89,-4.242 17.82,-5.242" class="color1d2a30 svgShape"></path><path fill="#00164d" d="M1340.67 261.199c-.66-.25-4.09 6.52-4.3 18.563-.09 5.957.81 13.16 3.4 20.707 1.31 3.769 3.05 7.609 5.29 11.359 2.37 3.66 5.28 8.582 12.5 9.121 3.76 0 6.77-3.058 7.73-5.609 1.16-2.621 1.32-4.82 1.68-7.039.53-4.461.28-8.809-.48-12.801-1.51-8.039-5.08-14.629-8.88-19.328-7.8-9.551-15.62-11.461-15.75-10.832-.58.961 6.02 4.281 12.06 13.519 2.98 4.551 5.7 10.59 6.71 17.621.5 3.508.59 7.239.07 11-.44 4.059-1.82 7.372-3.35 7.02-1.89.102-5.21-2.809-6.89-5.969-2.08-3.332-3.77-6.75-5.11-10.121-2.64-6.769-3.93-13.289-4.42-18.832-.95-11.109.76-18.137-.26-18.379M957.953 2478.15c0 0-60.265-2.64-99.98-207.85C818.266 2065.08 513.027 402.391 513.027 402.391l221.063-1.993 417.04 1580.762-27.71-1629.64 224.59-17.18c0 0 168.54 1802.86 170.13 1907.76 1.98 130.78-73.13 263.07-73.13 263.07l-487.057-27.02" class="color1d2a30 svgShape"></path><path fill="#002b98" d="M1261.8 2495.72c1.41-.29-21.53-117.53-51.23-261.83-29.71-144.35-54.93-261.1-56.34-260.8-1.41.29 21.53 117.51 51.24 261.85 29.7 144.3 54.93 261.07 56.33 260.78M1296.28 2466.44c-.38.51 5.99 2.4 12.84-3.73 3.16-2.95 6.26-7.86 6.03-14.14-.12-6.36-4.93-12.55-11.32-15.17-6.33-2.74-14.12-1.86-18.76 2.49-4.66 4.22-6 9.88-5.91 14.19.4 9.19 6.2 12.43 6.29 11.8.7-.51-3.25-4.28-2.61-11.7.33-3.54 1.88-7.85 5.33-10.63 3.34-2.84 8.77-3.39 13.64-1.35 4.86 2.06 8.26 6.33 8.55 10.7.43 4.41-1.58 8.54-3.88 11.25-4.87 5.63-10.32 5.44-10.2 6.29M1286.7 2385.18c-.14.62 6.22-.21 9.69-8.33 1.53-3.83 2.23-9.38-.62-14.72-2.79-5.46-9.64-8.69-16.23-8.11-6.61.44-12.89 4.7-14.79 10.53-1.99 5.72-.44 11.09 1.67 14.64 4.68 7.47 11.09 7.32 10.86 6.72.32-.79-4.71-2.02-7.61-8.45-1.35-3.07-2.06-7.35-.45-11.18 1.47-3.83 5.76-6.67 10.72-7.07 4.96-.37 9.63 1.77 11.68 5.32 2.18 3.54 2.15 7.88 1.29 11.12-1.87 6.8-6.65 8.8-6.21 9.53M1074.85 2464.38c.3-.09-.49-3.79-2.64-10.27-2.12-6.49-5.86-15.69-11.65-26.48-11.4-21.53-32.66-49.29-64.15-70.03-31.492-20.76-65.394-29.35-89.672-31.34-12.203-1.07-22.125-.87-28.925-.27-6.801.59-10.508 1.32-10.477 1.64.047.97 15.102-.73 39 2.29 23.754 2.89 56.57 11.83 87.211 32.02 30.633 20.19 51.793 46.81 63.803 67.5 12.21 20.77 16.58 35.28 17.5 34.94M1504.99 2318.53c-.21-.29-2.55 1.14-6.63 4-4.15 2.77-9.69 7.44-16.04 13.72-12.73 12.48-27.74 32.78-37.67 58.37-9.82 25.63-12.31 50.76-11.24 68.56.49 8.91 1.46 16.1 2.67 20.93 1.11 4.86 1.89 7.49 2.24 7.42.94-.17-1.19-10.95-1.23-28.44-.1-17.45 2.89-41.7 12.42-66.6 9.65-24.85 23.7-44.84 35.49-57.7 11.76-12.94 20.57-19.5 19.99-20.26" class="color365462 svgShape"></path><path fill="#8fafff" d="m 870.047,2873.63 98.219,-5.43 c 6.207,-31.84 27.769,-80.52 27.769,-80.52 79.055,137.23 140.355,321.09 155.575,394.98 -2.22,7.38 -4.85,15.55 -8.12,24.67 -3.78,10.54 -0.54,30.48 1.24,41.56 2.66,16.45 7.26,38.59 8.64,48.83 4.21,31.23 9.24,36.13 20.13,32.6 14.82,-4.8 -6.07,-87.69 6.07,-89.49 6.53,-0.96 14.5,27.43 16.82,50.73 2.31,23.3 12.85,94.97 20.55,99.75 11.29,7 21.13,-4.08 18.28,-27.28 -2.89,-23.48 -6.53,-93.51 5.79,-94.46 12.13,-0.93 22.31,117.89 22.31,117.89 0,0 -1.91,25.86 12.34,25.24 25.72,-1.12 5.62,-126.39 3.42,-138.26 -1.54,-8.25 11.82,-9.76 13,-0.81 1.21,9.23 7.41,118.83 33.59,117.95 20.1,-0.68 -15.56,-103.23 -4.28,-127.01 11.28,-23.76 19.12,80.75 38.31,79.31 7.14,-0.54 12.42,-1.94 -0.71,-61.08 -7.05,-31.79 -27.77,-90.23 -45.88,-138.62 -30.4,-164 -163.84,-688.63 -373.047,-592.59 C 823,2605.32 768.375,2871.38 768.375,2871.38 l 101.672,2.25" class="colorf9ad95 svgShape"></path><path fill="#5585ff" d="m 1313.12,3144.09 c -0.11,0.04 0.23,1.26 0.99,3.59 0.9,2.65 2.06,6.05 3.5,10.32 3.27,9.46 7.85,22.71 13.69,39.59 5.83,17.22 12.99,38.3 20.11,63.07 3.65,12.37 6.6,25.77 9.36,40.14 1.33,7.17 2.69,14.56 3.53,22.15 0.35,3.77 0.75,7.65 0.52,11.37 -0.27,3.9 -0.87,7.09 -3.95,7.14 -3.18,0.86 -5.32,-1.77 -7.5,-5.08 -2.01,-3.33 -3.57,-7.17 -4.97,-11.09 -2.8,-7.87 -4.99,-16.26 -7.16,-24.84 -2.18,-8.58 -4.19,-17.4 -6.81,-26.39 -1.57,-4.54 -2.27,-8.92 -5.99,-13.8 -0.7,-0.59 -1.33,-1.37 -2.74,-1.65 -1.54,-0.39 -2.69,0.2 -3.76,0.85 -1.44,1.28 -2.13,2.57 -2.76,3.77 -1.13,2.53 -1.82,5.12 -2.11,7.63 -1.79,20.07 2.78,39.47 5.91,59.61 1.72,10.04 3.54,20.2 4.86,30.49 0.64,5.13 1.18,10.32 1.24,15.43 0.19,4.74 -0.64,11.14 -2.72,12.05 -2.56,0.96 -7.19,-1.94 -9.64,-6.18 -2.75,-4.17 -4.8,-9.12 -6.54,-14.17 -3.47,-10.18 -5.74,-21.02 -7.69,-32 -1.91,-11.01 -3.4,-22.23 -4.63,-33.6 -0.55,-5.69 -1.11,-11.42 -1.67,-17.17 l -0.76,-8.68 c -0.21,-2.35 -0.21,-7.26 -3.97,-10.08 -3.48,-2.61 -8.12,-2.88 -11.83,-0.47 -1.86,1.2 -3.31,3.43 -3.59,5.69 -0.24,1.15 -0.03,2.2 0.05,3.2 l 0.38,2.15 c 0.88,5.8 1.78,11.62 2.67,17.48 1.65,11.74 3.08,23.61 4.22,35.58 1.12,11.97 1.95,24.06 2.14,36.19 0.02,12 -0.07,24.58 -3.53,35.57 -1.13,3.34 -2.98,6.37 -5.04,7.24 -2.12,0.77 -5.18,-0.01 -6.75,-2.15 -3.47,-4.87 -4.04,-12.9 -3.77,-19.43 l 0.02,-0.32 -0.02,-0.18 c -2.14,-23.5 -4.7,-46.59 -8.08,-69.29 -1.74,-11.35 -3.6,-22.59 -6.45,-33.69 -0.71,-2.78 -1.56,-5.56 -2.54,-8.33 -1.33,-2.77 -1.7,-5.59 -5.67,-8.64 -3.43,-1.64 -5.98,0.23 -7.34,1.62 -1.46,1.53 -2.05,3.04 -2.73,4.52 -1.15,2.94 -1.73,5.78 -2.24,8.62 -3.18,22.54 -1.87,44.23 -0.6,65.5 0.42,10.69 3.03,21.27 1.62,30.65 -0.67,4.65 -2.49,9.32 -5.58,11.39 -1.52,1 -3.25,1.23 -5.12,0.79 -0.94,-0.29 -1.87,-0.62 -2.79,-1.18 -0.91,-0.74 -0.72,-0.46 -1.41,-1.72 -3.89,-8.17 -5.78,-18.5 -7.88,-27.85 -1.97,-9.56 -3.65,-19.08 -5.18,-28.48 -1.52,-9.39 -2.87,-18.67 -4.07,-27.81 -1.24,-9.07 -1.86,-18.26 -3.65,-27.19 -1.69,-8.9 -3.75,-17.56 -6.99,-25.86 -0.82,-2.08 -1.76,-4.13 -2.89,-6.15 -1.4,-1.88 -2.19,-4.33 -6.02,-5.5 -2.19,-0.6 -4.09,0.89 -5.07,2.14 -0.84,1.29 -1.25,2.52 -1.58,3.7 -0.51,2.3 -0.72,4.51 -0.8,6.66 -0.22,17.04 2.31,32.67 3.15,47.76 0.48,7.48 0.82,14.88 -0.05,21.72 -0.45,3.21 -1.48,6.97 -3.31,7.72 -2.68,1.07 -6.14,1.63 -8.15,0.18 -4.42,-3.19 -5.96,-10.5 -7.4,-16.36 -1.42,-6.19 -2.06,-12.32 -3.19,-18.23 -4.16,-23.66 -8.57,-43.97 -10.71,-60.57 -0.97,-8.3 -1.37,-15.79 -0.32,-22.03 1.39,-6.05 3.42,-11.41 4.59,-15.61 1.18,-3.99 2.12,-7.17 2.87,-9.67 0.61,-2.18 0.87,-3.31 0.78,-3.34 -0.1,-0.03 -0.56,1.04 -1.37,3.16 -0.88,2.45 -2.01,5.56 -3.42,9.47 -1.39,4.26 -3.48,9.13 -5.19,15.66 -1.3,6.55 -1.06,14.18 -0.25,22.61 1.81,16.9 5.85,37.07 9.69,60.77 1.06,5.89 1.63,12.16 3,18.52 0.72,3.19 1.42,6.43 2.63,9.69 1.27,3.15 2.63,6.79 6.27,9.18 3.87,2.41 8.17,1.53 11.8,0.15 4.69,-2.68 4.86,-7.18 5.68,-10.71 1.02,-7.48 0.7,-14.95 0.3,-22.58 -0.73,-15.18 -3.1,-31.13 -2.76,-47.28 0.09,-1.99 0.32,-3.94 0.72,-5.72 0.43,-1.95 1.42,-2.69 1.22,-2.32 0.35,-0.07 1.88,1.66 2.74,3.24 0.94,1.71 1.79,3.57 2.54,5.51 2.98,7.8 4.97,16.33 6.56,24.99 1.68,8.65 2.23,17.66 3.45,26.94 1.15,9.21 2.46,18.54 3.94,28 1.49,9.46 3.13,19.05 5.08,28.74 2.22,9.75 3.63,19.38 8.37,29.52 0.29,1.02 2.35,3.3 3.51,3.85 1.26,0.76 2.69,1.32 4.2,1.76 3.05,0.81 6.79,0.36 9.56,-1.51 5.5,-3.87 7.24,-9.92 8.16,-15.27 0.83,-5.49 0.55,-11.05 -0.07,-16.34 -0.59,-5.13 -1.02,-10.36 -1.39,-15.6 -1.22,-20.93 -2.37,-42.84 0.7,-64.06 0.46,-2.58 1.03,-5.19 1.92,-7.4 0.45,-1.04 0.98,-2.14 1.49,-2.6 l 0.49,-0.39 0.04,-0.01 0.02,-0.03 c -0.18,-2.35 -0.03,-0.5 -0.07,-0.96 l -0.41,0.86 c 0.52,0.42 2.12,3.17 2.89,5.49 0.88,2.5 1.68,5.09 2.35,7.75 2.73,10.67 4.56,21.84 6.27,33.07 3.32,22.5 5.86,45.57 7.97,68.91 v -0.49 c -0.12,7.69 -0.25,15.75 5.06,23.72 3.1,3.93 8.69,6.06 13.95,4.08 5.2,-2.43 7.12,-7.08 8.58,-10.94 3.97,-12.8 3.84,-25.34 3.87,-37.72 -0.2,-12.38 -1.05,-24.59 -2.19,-36.68 -1.16,-12.09 -2.61,-24.04 -4.29,-35.87 -0.91,-5.9 -1.82,-11.79 -2.73,-17.65 -0.74,-3.72 -0.56,-3.84 0.55,-4.94 1.2,-0.91 3.52,-0.77 4.65,0.18 1.28,0.86 1.43,2.6 1.7,5.85 l 0.77,8.68 c 0.58,5.79 1.15,11.55 1.73,17.28 1.26,11.47 2.79,22.81 4.75,33.98 2.03,11.16 4.35,22.19 8.02,32.87 1.87,5.32 4.02,10.6 7.28,15.51 1.66,2.43 3.59,4.85 6.42,6.63 2.89,1.66 6.06,3.17 10.4,1.51 4.1,-2.25 4.81,-6.05 5.45,-8.82 0.43,-2.91 0.62,-5.75 0.53,-8.49 -0.09,-5.51 -0.68,-10.83 -1.35,-16.09 -1.39,-10.49 -3.26,-20.67 -5.03,-30.71 -3.26,-19.92 -7.76,-39.75 -6.2,-57.96 0.25,-2.23 0.84,-4.28 1.6,-6.09 0.46,-0.91 0.97,-1.67 1.29,-2 l -0.24,-0.44 -0.11,0.05 0.07,0.66 c 2.1,2.59 3.59,7.6 4.9,11.73 2.59,8.73 4.68,17.56 6.92,26.16 2.25,8.61 4.52,17.07 7.49,25.22 1.5,4.07 3.14,8.08 5.46,11.87 1.26,1.86 2.5,3.77 4.55,5.3 0.91,0.82 2.26,1.4 3.57,1.77 1.56,0.24 2.82,0.2 3.84,0.01 2.36,-0.1 5.54,-2.16 6.32,-4.63 0.97,-2.34 1.18,-4.53 1.28,-6.63 0.21,-4.21 -0.26,-8.16 -0.65,-12.08 -0.94,-7.79 -2.39,-15.22 -3.81,-22.43 -2.91,-14.38 -6.07,-27.96 -9.89,-40.34 -7.48,-24.81 -14.98,-45.79 -21.17,-62.91 -6.23,-17.11 -11.28,-30.3 -14.79,-39.22 -1.69,-4.18 -3.04,-7.52 -4.08,-10.11 -0.96,-2.26 -1.5,-3.4 -1.59,-3.37" class="colorf6865e svgShape"></path><path fill="#2764ff" d="m 767.266,2862.27 c 19,-67.04 56.113,-170.62 96.019,-279.81 5.774,-15.79 27.727,-16.82 34.91,-1.63 l 97.84,206.85 c 0,0 -23.558,169.93 -21.562,163.93 1.996,-6 -201.856,-21.99 -201.856,-21.99 l -5.351,-67.35" class="colorf03658 svgShape"></path><path fill="#fafbff" d="m 987.609,2895.61 c 0.223,-0.83 -12.156,-4.41 -31.519,-11.8 -19.367,-7.36 -45.559,-19.06 -72.582,-35.4 -26.992,-16.42 -49.481,-34.24 -64.953,-48.01 -15.504,-13.76 -24.41,-23.07 -25.039,-22.49 -0.262,0.24 1.699,2.81 5.484,7.27 3.746,4.48 9.555,10.64 17.055,17.92 14.972,14.59 37.402,33.13 64.75,49.76 27.379,16.56 54.187,27.88 74.039,34.41 9.933,3.29 18.078,5.6 23.789,6.84 5.699,1.3 8.887,1.85 8.976,1.5" class="colorfcfdfd svgShape"></path><path fill="#00164d" d="M1026.39 2844.03c-.52-.37-7.18 7.48-16.32 21.36-9.15 13.86-20.476 33.97-30.226 57.43-9.711 23.49-15.926 45.71-19.266 61.98-3.363 16.28-4.211 26.54-3.586 26.63.793.14 2.922-9.87 7.164-25.78 4.227-15.9 10.918-37.65 20.504-60.84 9.621-23.16 20.28-43.25 28.55-57.49 8.26-14.24 13.83-22.82 13.18-23.29M1091.65 3760.16c-34.22-55.32-41.49-126.87-19.11-188.09 10.05-27.46 25.97-54.61 23.06-83.76-2.99-29.86-25.64-58.07-17.64-86.96 4.74-17.08 19.4-29.75 25.02-46.56 6.6-19.71-.28-41.06-3.42-61.63-8-52.37 8.74-105.03 12.89-157.86 4.15-52.83-10.11-114.66-57.22-137.7-14.33-7-33.04-9.02-44.95 1.66-15.12 13.56-10.909 37.91-6.77 57.93 41.4 200.18-86.494 395.18-57.287 597.56 4.679 32.44 22.8 87.48 46.156 110.18 23.351 22.69 87.941 19.93 110.041-4.01" class="color1d2a30 svgShape"></path><path fill="#002b98" d="m 894.676,3180.03 c -0.418,0.34 6.004,7.2 15.012,21.39 8.964,14.09 20.234,36.09 26.125,65.48 2.855,14.68 4.121,31.03 3.078,48.64 -0.766,17.6 -3.246,36.55 -2.059,56.81 0.414,10.14 2.582,20.46 5.738,30.65 3.543,10.05 8.149,19.91 13.731,29.37 11.191,18.92 25.367,36.54 38.332,55.36 12.967,18.76 23.727,38.63 27.217,59.62 3.5,20.99 -0.28,41.78 -3.49,61.36 -3.47,19.6 -5.85,38.9 -4.42,56.83 1.14,17.92 4.73,34.37 9.59,48.8 9.82,28.95 24.34,49.46 35.35,62.23 5.54,6.42 10.23,11.07 13.61,13.97 3.34,2.96 5.14,4.44 5.26,4.3 0.39,-0.4 -6.74,-6.52 -17.31,-19.57 -10.42,-13.02 -24.22,-33.54 -33.41,-62.08 -4.55,-14.23 -7.84,-30.38 -8.78,-47.89 -1.21,-17.56 1.25,-36.16 4.84,-55.78 3.31,-19.54 7.39,-40.83 3.79,-62.99 -3.61,-22.15 -14.83,-42.76 -27.95,-61.74 -13.145,-19.06 -27.25,-36.56 -38.235,-55.02 -5.48,-9.22 -9.953,-18.73 -13.414,-28.36 -3.047,-9.74 -5.195,-19.53 -5.664,-29.37 -1.293,-19.62 0.985,-38.51 1.594,-56.32 0.863,-17.84 -0.641,-34.67 -3.789,-49.56 -6.477,-29.88 -18.457,-51.95 -28.039,-65.86 -4.805,-7 -8.985,-12.09 -11.934,-15.43 -3.004,-3.3 -4.644,-4.96 -4.773,-4.84" class="color365462 svgShape"></path><path fill="#002b98" d="m 799.824,3165.05 c -0.156,0.09 0.918,2.4 3.106,6.71 2.457,4.74 5.683,10.98 9.718,18.77 8.368,16.31 20.903,39.77 33.223,70.07 12.074,30.19 24.051,68.01 24.418,111.13 0.066,10.73 -0.715,21.72 -2.441,32.81 -1.723,11.1 -4.301,22.44 -5.977,34.28 -1.605,11.79 -2.375,24.36 0.758,36.77 3.098,12.46 10.922,23.53 20.351,32.11 18.852,17.13 41.59,28.3 53.34,48.36 12.035,19.72 14.692,42.85 17.731,64.13 2.601,21.51 6.726,42.22 13.765,60.42 6.805,18.29 15.891,34.18 25.372,47.71 19.092,27.18 40.322,44.29 55.592,54.47 7.69,5.08 13.92,8.62 18.3,10.71 4.34,2.14 6.65,3.2 6.73,3.03 0.27,-0.5 -8.96,-4.87 -23.88,-15.41 -14.77,-10.59 -35.33,-27.9 -53.711,-54.9 -9.137,-13.44 -17.867,-29.14 -24.352,-47.12 -6.73,-17.95 -10.57,-37.98 -13.062,-59.55 -2.95,-21.28 -5.395,-45.03 -18.133,-66.16 -12.738,-21.59 -36.277,-33.08 -54.149,-49.51 -9.007,-8.23 -16.003,-18.22 -18.882,-29.58 -2.883,-11.35 -2.254,-23.28 -0.715,-34.78 1.594,-11.56 4.125,-22.88 5.84,-34.23 1.718,-11.36 2.453,-22.63 2.324,-33.59 -0.656,-44.06 -13.215,-82.24 -25.813,-112.5 -12.859,-30.36 -25.922,-53.6 -34.847,-69.64 -4.391,-7.59 -7.907,-13.68 -10.582,-18.31 -2.485,-4.15 -3.864,-6.28 -4.024,-6.2" class="color365462 svgShape"></path><path fill="#00164d" d="m 4108.46,339.391 c -0.1,0.05 0.5,1.48 1.75,4.218 1.39,2.993 3.27,6.993 5.66,12.082 4.81,10.68 11.07,26.848 16.65,48.36 11.02,43 14.86,108.711 -1.42,186.758 -7.56,39.082 -19.75,81 -34.63,125.441 -14.67,44.52 -31.69,91.762 -45.6,142.82 -13.76,50.942 -24.61,106.239 -22.52,164.21 2.11,58.08 19.31,116.05 38.21,173.76 18.88,57.81 38.39,114.31 44.24,171.14 6.62,56.73 -5.53,112.42 -31.38,158.05 -25.03,46.11 -56.52,85.56 -80.08,126.42 -23.94,40.71 -38.91,82.58 -48.14,121.52 -17.89,78.51 -11.62,144.68 -3.05,188.27 9.28,43.84 19.64,66.5 19.64,66.5 0.1,-0.04 -0.29,-1.54 -1.16,-4.42 -0.98,-3.15 -2.29,-7.37 -3.97,-12.75 -3.47,-11.19 -7.96,-27.92 -12.22,-49.77 -7.82,-43.5 -13.36,-109.21 4.88,-186.86 9.42,-38.51 24.46,-79.83 48.3,-119.98 23.52,-40.38 55.15,-79.65 80.68,-126.31 26.38,-46.14 39.07,-103.65 32.35,-161.26 -5.89,-57.8 -25.56,-114.67 -44.38,-172.4 -18.91,-57.66 -35.9,-115.03 -38.05,-172.13 -2.14,-57.08 8.45,-111.849 21.98,-162.54 13.68,-50.821 30.51,-98.071 44.99,-142.711 14.7,-44.579 26.74,-86.829 34.07,-126.188 15.85,-78.633 11.33,-145 -0.47,-188.141 -5.98,-21.609 -12.63,-37.738 -17.83,-48.3 -2.61,-5 -4.67,-8.918 -6.21,-11.852 -1.43,-2.656 -2.2,-4 -2.29,-3.937" class="color1d2a30 svgShape"></path><path fill="#2764ff" d="m 4031.35,1612.33 c 0,0 -47.86,153.04 37.99,242.65 3.01,3.14 8.32,1.66 9.1,-2.63 4.58,-25.27 10.31,-102.25 -47.09,-240.02" class="colorf03658 svgShape"></path><path fill="#00164d" d="m 4060.02,1803.98 c 0.81,-0.15 -0.56,-10.92 -3.22,-28.23 -3.15,-19.44 -6.84,-42.27 -10.92,-67.5 -4,-25.22 -7.63,-48.05 -10.71,-67.49 -2.63,-17.28 -4.19,-28.01 -5.07,-27.94 -0.78,0.06 -0.69,10.95 0.86,28.45 1.58,17.49 4.67,41.54 9,67.95 4.32,26.4 8.92,50.17 12.67,67.31 3.74,17.13 6.58,27.62 7.39,27.45" class="color1d2a30 svgShape"></path><path fill="#2764ff" d="m 4087.57,1251.4 c 0,0 29.27,157.64 147.05,196.7 4.13,1.37 8.13,-2.43 6.81,-6.58 -7.77,-24.48 -38.7,-95.2 -153.86,-190.12" class="colorf03658 svgShape"></path><path fill="#00164d" d="m 4202.54,1407.38 c 0.63,-0.52 -5.61,-9.39 -16.05,-23.45 -11.88,-15.71 -25.83,-34.17 -41.23,-54.55 -15.33,-20.43 -29.21,-38.9 -41.03,-54.65 -10.4,-14.05 -16.8,-22.79 -17.54,-22.32 -0.66,0.41 4.5,10 14.06,24.74 9.57,14.71 23.55,34.54 39.73,55.85 16.17,21.32 31.36,40.18 42.68,53.57 11.31,13.4 18.74,21.34 19.38,20.81" class="color1d2a30 svgShape"></path><path fill="#2764ff" d="m 4055.73,855.898 c 0,0 -17.77,159.352 83.59,230.942 3.56,2.5 8.48,0.03 8.43,-4.32 -0.33,-25.68 -9.39,-102.348 -92.02,-226.622" class="colorf03658 svgShape"></path><path fill="#00164d" d="m 4120.44,1038.55 c 0.77,-0.31 -2.63,-10.62 -8.54,-27.1 -6.8,-18.481 -14.78,-40.188 -23.6,-64.18 -8.75,-23.989 -16.66,-45.711 -23.4,-64.2 -5.87,-16.468 -9.45,-26.691 -10.3,-26.461 -0.75,0.211 1.41,10.879 6.27,27.762 4.89,16.859 12.51,39.891 21.81,64.981 9.26,25.097 18.33,47.558 25.27,63.658 6.93,16.1 11.73,25.86 12.49,25.54" class="color1d2a30 svgShape"></path><path fill="#2764ff" d="m 4144.46,458.09 c 0,0 -12.07,159.879 91.8,227.789 3.65,2.383 8.48,-0.27 8.27,-4.617 -1.24,-25.653 -13.05,-101.934 -100.07,-223.172" class="colorf03658 svgShape"></path><path fill="#00164d" d="m 4215.67,638.309 c 0.76,-0.34 -3.01,-10.52 -9.52,-26.778 -7.45,-18.242 -16.21,-39.652 -25.88,-63.289 -9.59,-23.672 -18.28,-45.094 -25.67,-63.344 -6.45,-16.238 -10.41,-26.328 -11.25,-26.058 -0.73,0.23 1.8,10.82 7.27,27.519 5.48,16.68 13.92,39.411 24.11,64.161 10.16,24.742 20.03,46.859 27.54,62.699 7.51,15.851 12.64,25.429 13.4,25.09" class="color1d2a30 svgShape"></path><path fill="#2764ff" d="m 3962.57,1746.8 c 0,0 -142.13,74.21 -144.91,198.28 -0.1,4.35 4.69,7.06 8.28,4.58 21.12,-14.6 79.66,-64.92 136.63,-202.86" class="colorf03658 svgShape"></path><path fill="#00164d" d="m 3847.17,1902.47 c 0.68,0.46 7.33,-8.12 17.7,-22.23 11.55,-15.96 25.1,-34.7 40.07,-55.41 15.03,-20.65 28.63,-39.34 40.21,-55.26 10.39,-14.06 16.86,-22.74 16.19,-23.31 -0.59,-0.51 -8.24,7.24 -19.52,20.69 -11.26,13.48 -26.12,32.65 -41.74,54.38 -15.65,21.7 -29.22,41.76 -38.7,56.5 -9.48,14.76 -14.9,24.17 -14.21,24.64" class="color1d2a30 svgShape"></path><path fill="#2764ff" d="m 4115.19,1418.13 c 0,0 -146.37,65.46 -156.69,189.13 -0.36,4.33 4.26,7.33 8,5.07 21.97,-13.3 83.45,-59.97 148.69,-194.2" class="colorf03658 svgShape"></path><path fill="#00164d" d="m 3990.55,1566.5 c 0.65,0.51 7.81,-7.64 19.02,-21.1 12.49,-15.23 27.16,-33.12 43.36,-52.87 16.25,-19.71 30.96,-37.53 43.49,-52.72 11.22,-13.4 18.21,-21.68 17.58,-22.29 -0.56,-0.54 -8.67,6.73 -20.75,19.47 -12.06,12.77 -28.04,31.01 -44.97,51.74 -16.92,20.71 -31.7,39.91 -42.05,54.06 -10.36,14.14 -16.35,23.22 -15.68,23.71" class="color1d2a30 svgShape"></path><path fill="#2764ff" d="m 4030.97,1051.53 c 0,0 -100.5,124.94 -53.36,239.73 1.65,4.03 7.14,4.59 9.42,0.88 13.51,-21.85 46.98,-91.4 43.94,-240.61" class="colorf03658 svgShape"></path><path fill="#00164d" d="m 3987.58,1240.39 c 0.81,0.15 3.48,-10.37 7.32,-27.46 4.18,-19.25 9.1,-41.85 14.52,-66.82 5.49,-24.94 10.47,-47.51 14.71,-66.74 3.88,-17.04 6.34,-27.59 5.49,-27.85 -0.73,-0.22 -4.65,9.94 -9.6,26.8 -4.92,16.85 -10.85,40.36 -16.46,66.53 -5.64,26.16 -10.04,49.97 -12.83,67.28 -2.78,17.31 -3.97,28.11 -3.15,28.26" class="color1d2a30 svgShape"></path><path fill="#2764ff" d="m 4130.52,620.121 c 0,0 -145.26,67.91 -153.5,191.719 -0.28,4.351 4.4,7.262 8.08,4.949 21.76,-13.668 82.44,-61.367 145.42,-196.668" class="colorf03658 svgShape"></path><path fill="#00164d" d="M4008.38 770.57c.67.481 7.69-7.789 18.67-21.429 12.24-15.45 26.6-33.563 42.46-53.59 15.93-19.973 30.33-38.051 42.6-53.442 11-13.597 17.85-21.98 17.21-22.589-.57-.532-8.56 6.878-20.42 19.832-11.85 12.949-27.52 31.457-44.09 52.476-16.58 20.992-31.02 40.442-41.14 54.754-10.12 14.316-15.95 23.488-15.29 23.988M4419.84 1250.54c.14-.01.2-1.21.19-3.54-.07-2.78-.16-6.15-.25-10.24-.43-9.64-1.01-22.65-1.72-38.88-1.88-34.19-4.49-81.85-7.61-138.85l-.01-.13-.04-.2c-10.36-58.02-39.91-122.329-79.61-184.759-29.11-46-59.63-87.82-85.96-126.711-26.49-38.781-48.85-74.699-64.44-106.531-15.69-31.777-24.81-59.097-30.15-78.179-2.55-9.571-4.47-17.04-5.57-22.161-1.2-5.089-1.92-7.75-2.13-7.711-.21.043.13 2.762.94 7.942.72 5.211 2.28 12.789 4.5 22.512 4.67 19.378 13.26 47.148 28.59 79.449 15.24 32.328 37.39 68.738 63.68 107.769 26.15 39.16 56.51 81.051 85.47 126.809 39.49 62.133 68.88 125.461 79.63 182.551l-.04-.33c4.01 56.96 7.36 104.57 9.75 138.72 1.32 16.2 2.36 29.18 3.14 38.78.41 4.08.75 7.43 1.03 10.2.27 2.3.48 3.5.61 3.49" class="color1d2a30 svgShape"></path><path fill="#2764ff" d="m 4333.36,885.871 c 0,0 61.51,148.079 -15.87,245.079 -2.71,3.4 -8.13,2.4 -9.3,-1.79 -6.85,-24.76 -19.53,-100.9 25.17,-243.289" class="colorf03658 svgShape"></path><path fill="#00164d" d="m 4322.15,1079.33 c 0.83,0.08 2.7,-10.62 4.88,-28.02 2.18,-17.39 4.61,-41.5 6.53,-68.189 1.92,-26.68 2.82,-50.922 2.81,-68.473 -0.04,-17.57 -0.95,-28.418 -1.73,-28.41 -0.87,0.012 -1.46,10.821 -2.51,28.274 -1.32,19.648 -2.86,42.707 -4.56,68.187 -1.78,25.491 -3.39,48.561 -4.77,68.221 -1.08,17.47 -1.47,28.32 -0.65,28.41" class="color1d2a30 svgShape"></path><path fill="#0041e4" d="m 4333.36,885.871 c -25.27,80.508 -32.2,139.839 -32.21,180.679 -0.01,31.39 4.06,51.85 7.04,62.61 0.69,2.47 2.86,3.84 5.08,3.84 1.54,0 3.11,-0.66 4.22,-2.05 29.85,-37.42 39.03,-82.44 39.05,-123.62 0.02,-52.908 -15.07,-99.49 -20.91,-115.529 0.41,4.879 0.72,12.75 0.74,22.847 0.01,17.551 -0.89,41.793 -2.81,68.473 -1.92,26.689 -4.35,50.799 -6.53,68.189 -2.17,17.33 -4.04,28.02 -4.87,28.02 h -0.01 c -0.82,-0.09 -0.43,-10.94 0.65,-28.41 1.38,-19.66 2.99,-42.73 4.77,-68.221 1.7,-25.48 3.24,-48.539 4.56,-68.187 0.82,-13.653 1.36,-23.242 1.97,-26.774 -0.47,-1.226 -0.74,-1.867 -0.74,-1.867" class="colorbc283b svgShape"></path><path fill="#000f34" d="m 4334.1,887.738 v 0 c -0.61,3.532 -1.15,13.121 -1.97,26.774 -1.32,19.648 -2.86,42.707 -4.56,68.187 -1.78,25.491 -3.39,48.561 -4.77,68.221 -1.08,17.47 -1.47,28.32 -0.65,28.41 h 0.01 c 0.83,0 2.7,-10.69 4.87,-28.02 2.18,-17.39 4.61,-41.5 6.53,-68.189 1.92,-26.68 2.82,-50.922 2.81,-68.473 -0.02,-10.097 -0.33,-17.968 -0.74,-22.847 v 0 c -0.62,-1.711 -1.14,-3.082 -1.53,-4.063" class="color161c1e svgShape"></path><path fill="#2764ff" d="m 4142.81,529.031 c 0,0 49.32,152.578 -35.68,242.989 -2.99,3.179 -8.3,1.742 -9.12,-2.54 -4.83,-25.218 -11.28,-102.148 44.8,-240.449" class="colorf03658 svgShape"></path><path fill="#00164d" d="m 4115.97,720.949 c 0.81,0.153 3.55,-10.371 7.13,-27.527 3.58,-17.16 7.95,-40.981 12.03,-67.422 4.08,-26.449 6.94,-50.539 8.36,-68.039 1.38,-17.512 1.35,-28.402 0.58,-28.449 -0.88,-0.063 -2.34,10.668 -4.8,27.976 -2.9,19.473 -6.31,42.332 -10.07,67.602 -3.85,25.25 -7.31,48.109 -10.28,67.59 -2.5,17.34 -3.77,28.109 -2.95,28.269" class="color1d2a30 svgShape"></path><path fill="#0041e4" d="m 4142.81,529.031 c -39.21,96.699 -47.85,163.399 -47.85,203.399 0,17.199 1.6,29.461 3.05,37.05 0.51,2.692 2.81,4.258 5.19,4.258 1.4,0 2.82,-0.539 3.93,-1.718 39.35,-41.848 49.91,-97.02 49.91,-144.211 0,-42.61 -8.62,-78.719 -12.44,-92.637 0.01,4.887 -0.32,12.75 -1.11,22.789 -1.42,17.5 -4.28,41.59 -8.36,68.039 -4.08,26.441 -8.45,50.262 -12.03,67.422 -3.55,17.039 -6.28,27.527 -7.11,27.527 -0.01,0 -0.02,0 -0.02,0 -0.82,-0.16 0.45,-10.929 2.95,-28.269 2.97,-19.481 6.43,-42.34 10.28,-67.59 3.76,-25.27 7.17,-48.129 10.07,-67.602 1.92,-13.519 3.24,-23.027 4.14,-26.508 -0.38,-1.281 -0.6,-1.949 -0.6,-1.949" class="colorbc283b svgShape"></path><path fill="#000f34" d="m 4143.41,530.98 v 0 c -0.9,3.481 -2.22,12.989 -4.14,26.508 -2.9,19.473 -6.31,42.332 -10.07,67.602 -3.85,25.25 -7.31,48.109 -10.28,67.59 -2.5,17.34 -3.77,28.109 -2.95,28.269 0,0 0.01,0 0.02,0 0.83,0 3.56,-10.488 7.11,-27.527 3.58,-17.16 7.95,-40.981 12.03,-67.422 4.08,-26.449 6.94,-50.539 8.36,-68.039 0.79,-10.039 1.12,-17.902 1.11,-22.789 v 0 c -0.48,-1.774 -0.89,-3.172 -1.19,-4.192" class="color161c1e svgShape"></path><path fill="#2764ff" d="m 4411.7,1066.83 c 0,0 131.36,91.96 118.11,215.34 -0.47,4.33 -5.58,6.39 -8.81,3.47 -19.07,-17.21 -70.62,-74.66 -109.3,-218.81" class="colorf03658 svgShape"></path><path fill="#0041e4" d="m 4411.7,1066.83 c 38.68,144.15 90.23,201.6 109.3,218.81 1.03,0.94 2.27,1.37 3.48,1.37 2.55,0 5.01,-1.9 5.33,-4.84 0.63,-5.91 0.93,-11.74 0.93,-17.49 0.05,-114.48 -119.04,-197.85 -119.04,-197.85" class="colorbc283b svgShape"></path><path fill="#00164d" d="m 4506.04,1236.1 c 0.74,-0.37 -3.41,-10.42 -10.91,-26.26 -7.5,-15.85 -18.37,-37.5 -31.09,-61.03 -12.68,-23.57 -24.94,-44.49 -34.36,-59.31 -9.45,-14.8 -16.05,-23.48 -16.69,-23.05 -0.73,0.48 4.56,9.93 13.05,25.21 9.43,17.28 20.49,37.58 32.73,60 12.17,22.46 23.19,42.79 32.58,60.12 8.46,15.33 13.94,24.68 14.69,24.32" class="color1d2a30 svgShape"></path><path fill="#2764ff" d="m 4195.78,680.289 c 0,0 158.44,24.711 200.87,141.32 1.49,4.09 -2.19,8.192 -6.38,6.993 -24.68,-7.051 -96.28,-35.93 -194.49,-148.313" class="colorf03658 svgShape"></path><path fill="#0041e4" d="m 4195.78,680.289 c 98.21,112.383 169.81,141.262 194.49,148.313 0.51,0.148 1.01,0.218 1.49,0.218 2.9,0 5.23,-2.449 5.23,-5.332 0,-0.609 -0.11,-1.25 -0.34,-1.879 -37.13,-102.058 -163.13,-133.718 -194,-140.027 -3.13,-0.641 -5.29,-1.023 -6.27,-1.191 -0.39,-0.071 -0.6,-0.102 -0.6,-0.102" class="colorbc283b svgShape"></path><path fill="#00164d" d="m 4355.03,790.711 c 0.51,-0.652 -7.65,-7.84 -21.37,-18.77 -13.7,-10.929 -33,-25.562 -54.77,-41.101 -21.78,-15.57 -41.99,-28.969 -56.98,-38.11 -15,-9.128 -24.74,-14.011 -25.13,-13.339 -0.45,0.757 8.47,6.898 22.81,16.89 16.08,11.367 34.95,24.699 55.81,39.438 20.82,14.812 39.68,28.203 55.72,39.621 14.36,10.039 23.41,16.031 23.91,15.371" class="color1d2a30 svgShape"></path><path fill="#002b98" d="M 4044.65,388.73 3998.43,77.6797 h 288.01 L 4249.1,388.73 h -204.45" class="color365462 svgShape"></path><path fill="#00164d" d="M4260.62 292.352c0-1.661-52.01-3-116.14-3-64.15 0-116.14 1.339-116.14 3 0 1.648 51.99 3 116.14 3 64.13 0 116.14-1.352 116.14-3M4266.32 267.602c0-1.653-53.7-3-119.93-3-66.26 0-119.95 1.347-119.95 3 0 1.66 53.69 2.988 119.95 2.988 66.23 0 119.93-1.328 119.93-2.988M3146.38 3405.78c0 0-2.66-.05-7.81.1-5.17.22-12.84.58-22.89-.12-19.96-1.12-49.93-4.88-85.22-19.65-34.89-14.74-75.73-40.79-108.22-84.34-16.12-21.67-29.58-47.74-37.78-77.29-7.91-29.59-10.58-62.41-6.81-96.2 4.26-33.67 14.57-68.52 33.44-100.52 9.37-15.95 20.46-31.46 34.04-45.13 13.1-14.07 28.57-26.52 46-35.99 17.41-9.42 37.34-15.36 57.73-14.54 20.22.66 41.09 7.79 55.9 22.55 14.91 14.65 22.27 36.17 22.28 57.64.11 21.64-7.39 43.15-20.28 61.27-25.97 36.49-67.95 61.04-112.61 74.27-45.1 13.14-94.63 13.48-142.04 1.96-23.62-6.15-46.7-15.17-68.41-27.19-21.69-12.09-41.42-27.86-58.72-46.07-4.1-4.76-8.77-9.07-12.42-14.23l-11.29-15.24c-6.59-10.82-13.35-21.62-18.41-33.37-10.6-23.19-18.04-48.06-21.75-73.69-6.71-51.22-.5-103.98 20.2-150.02 19.99-46.11 54.08-85.69 96.55-109.54 21.19-11.85 44.62-19.49 68.38-20.78 23.71-1.47 47.35 4.64 67.47 16.2 20.09 11.53 36.87 28.86 45.67 49.74 8.74 20.86 8.58 44.67 1.03 65.38-7.43 20.94-21.36 38.82-37.6 53.17-16.34 14.34-35.41 25.08-55.31 32.14-40.34 13.17-83.31 12.46-121.74 2.11-38.53-10.49-72.88-30.33-99.85-55.68-26.93-25.5-45.83-56.78-57.25-88.72-23.07-64.38-17.2-129.73 2.62-179.66 20.4-50.36 52.8-86.22 82.39-109.92 29.86-23.87 57.04-36.75 75.7-44.09 9.4-3.58 16.65-6.12 21.62-7.52 4.93-1.54 7.42-2.46 7.42-2.46 0 0-2.59.58-7.57 1.95-5.04 1.23-12.35 3.62-21.86 7.05-18.83 7.05-46.31 19.7-76.58 43.49-29.99 23.63-62.92 59.57-83.83 110.41-20.32 50.45-26.56 116.57-3.38 181.99 11.48 32.45 30.58 64.34 57.96 90.4 27.39 25.87 62.26 46.15 101.49 56.93 39.13 10.62 82.89 11.51 124.34-1.95 20.5-7.23 40.06-18.21 56.92-32.94 16.75-14.74 31.2-33.18 39.03-55.08 7.94-21.68 8.19-46.84-1.04-68.89-9.26-22.05-26.82-40.15-47.69-52.16-20.89-12.04-45.55-18.44-70.23-16.93-24.64 1.32-48.83 9.22-70.59 21.36-43.58 24.44-78.39 64.87-98.82 111.92-21.12 46.96-27.45 100.65-20.6 152.84 3.77 26.1 11.35 51.46 22.18 75.13 5.17 11.99 12.07 23.03 18.81 34.08l11.55 15.58c3.74 5.27 8.5 9.68 12.7 14.54 17.68 18.62 37.85 34.69 59.97 47.01 22.14 12.25 45.65 21.42 69.7 27.66 48.28 11.7 98.68 11.31 144.67-2.14 45.56-13.59 88.26-38.48 115.15-76.3 13.32-18.75 21.21-41.38 21.04-64.02-.03-22.47-7.79-45.24-23.75-60.89-15.85-15.71-37.85-23.09-58.97-23.74-21.33-.8-42.06 5.45-59.92 15.19-17.93 9.79-33.66 22.55-46.97 36.9-13.78 13.96-25.03 29.76-34.5 46.01-19.08 32.56-29.42 67.95-33.64 102.1-3.7 34.28-.85 67.54 7.29 97.51 8.43 29.92 22.22 56.3 38.63 78.16 33.11 43.89 74.5 69.89 109.79 84.46 35.67 14.6 65.89 18.04 85.95 18.82 10.09.54 17.79 0 22.95-.39 5.16-.33 7.79-.63 7.79-.63" class="color1d2a30 svgShape"></path><path fill="#2764ff" d="M 2078.25,1323.75 H 3480.36 V 2405.17 H 2078.25 Z" class="colorf03658 svgShape"></path><path fill="#2764ff" d="m 2078.25,2405.17 258.98,-241.55 h 1378.33 l -235.2,241.55 H 2078.25" class="colorf03658 svgShape"></path><path fill="#00164d" d="M2078.25 2405.17c25.3.05 604.41 1.1 1402.11 2.56h1.08l.75-.78c75.12-77.12 153.06-157.15 232.81-239.03l2.42-2.48 4.32-4.42h-6.18c-565.19.43-1066.81.8-1378.33 1.03h-.62l-.45.43c-162.05 152.49-249.4 234.69-257.91 242.69 8.57-7.91 96.65-89.35 260.05-240.4l-1.07.42c311.52.23 813.14.61 1378.33 1.04l-1.87-4.42-2.42 2.48c-79.72 81.9-157.65 161.95-232.74 239.1l1.83-.77c-797.7 1.45-1376.83 2.51-1402.11 2.55M2499.39 1906.51c-14.84-.03-28.38-13.35-28.64-28.19-.25-14.83 12.82-28.62 27.65-29.16 14.82-.53 28.86 12.27 29.67 27.09.82 14.81-11.72 29.09-26.53 30.18M2830.45 1906.51c-14.83-.03-28.38-13.35-28.63-28.19-.26-14.83 12.81-28.62 27.64-29.16 14.83-.53 28.86 12.27 29.67 27.09.82 14.81-11.72 29.09-26.52 30.18M2832.58 1647.65c-1.51-.62-3.71 27.06-27.76 62.16-11.81 17.41-29.49 35.86-52.96 50.82-23.33 14.96-52.96 25.74-84.97 26.9-32.05.59-62.22-8.54-86.34-22.2-24.26-13.65-42.93-31.11-55.68-47.85-25.92-33.72-29.65-61.24-31.11-60.54-.18.04.11 1.66.81 4.73.85 3.02 1.5 7.69 3.67 13.28 3.62 11.41 10.97 27.4 23.69 44.76 12.65 17.37 31.49 35.55 56.25 49.79 24.62 14.26 55.7 23.86 88.85 23.23 33.13-1.2 63.62-12.48 87.41-28.06 23.96-15.58 41.76-34.76 53.43-52.8 11.76-18.02 18.22-34.4 21.21-45.99 1.87-5.71 2.26-10.4 2.94-13.46.54-3.1.73-4.75.56-4.77" class="color1d2a30 svgShape"></path><path fill="#002ea1" d="m 3480.36,2078.89 h -274.89 c -0.34,42.29 -0.75,71.39 -1.19,82.51 89.13,-0.06 181.36,-0.13 276.08,-0.2 v -82.31" class="color841d29 svgShape"></path><path fill="#000c2c" d="m 3480.36,2161.2 v 0 c -94.72,0.07 -186.95,0.14 -276.08,0.2 -0.03,0.85 -0.07,1.59 -0.1,2.22 h 276.18 v -2.42" class="color151717 svgShape"></path><path fill="#002ea1" d="m 3202.28,2078.89 h -872.89 l -247.96,314.39 206.1,-185.04 c 15.39,-14.48 31.59,-29.73 48.63,-45.76 l 0.45,-0.43 h 0.62 c 213.22,-0.16 515.48,-0.38 866.24,-0.65 -0.44,-11.12 -0.85,-40.22 -1.19,-82.51" class="color841d29 svgShape"></path><path fill="#000c2c" d="m 3203.47,2161.4 c -350.76,0.27 -653.02,0.49 -866.24,0.65 h -0.62 l -0.45,0.43 c -17.04,16.03 -33.24,31.28 -48.63,45.76 l 49.7,-44.62 h 866.34 c -0.03,-0.63 -0.07,-1.37 -0.1,-2.22" class="color151717 svgShape"></path><path fill="#00164d" d="m 3203.88,1326.23 c -1.45,0 -2.61,188.1 -2.61,420.08 0,232.06 1.16,420.12 2.61,420.12 1.43,0 2.6,-188.06 2.6,-420.12 0,-231.98 -1.17,-420.08 -2.6,-420.08" class="color1d2a30 svgShape"></path><path fill="#f2f6ff" d="m 3424.03,1431.67 h -123.59 v 139.71 h 123.59 v -139.71" class="colorf8f8f9 svgShape"></path><path fill="#2764ff" d="M 2078.25,2405.17 1790.4,2163.62 h 287.85 v 241.55" class="colorf03658 svgShape"></path><path fill="#0037c2" d="m 2078.25,2163.62 v 0 H 1790.4 l 287.85,241.55 v -241.55" class="colora02232 svgShape"></path><path fill="#2764ff" d="m 1909.65,80.3711 h 1612.09 v 1243.38 H 1909.65 Z" class="colorf03658 svgShape"></path><path fill="#0041e4" d="M 3521.74,80.3711 H 1909.65 V 1323.75 H 3521.74 V 1082.49 866.359 80.3711" class="colorbc283b svgShape"></path><path fill="#00164d" d="m 3117.83,89.1484 c -1.43,0 -2.6,277.1526 -2.6,618.9416 0,341.93 1.17,619.02 2.6,619.02 1.45,0 2.61,-277.09 2.61,-619.02 0,-341.789 -1.16,-618.9416 -2.61,-618.9416" class="color1d2a30 svgShape"></path><path fill="#f2f6ff" d="m 3385.05,223.672 h -123.58 v 139.707 h 123.58 V 223.672" class="colorf8f8f9 svgShape"></path><path fill="#00164d" d="M2401.46 1320.55v-265.32h183.1v265.32h-183.1M2401.46 349.371V84.0703h183.1V349.371h-183.1M3507.69 1323.75c0-.09-1.41-.18-4.13-.26-2.97-.07-6.99-.16-12.11-.27-10.92-.12-26.56-.27-46.57-.49-40.7-.19-99.14-.47-171.23-.82-144.82-.19-344.45-.46-564.95-.75-220.56.29-420.21.56-565.04.75-72.09.35-130.52.63-171.22.82-20 .22-35.64.37-46.56.49-5.12.11-9.13.2-12.1.27-2.73.08-4.13.17-4.13.26 0 .09 1.4.17 4.13.26 2.97.07 6.98.15 12.1.27 10.92.1 26.56.27 46.56.48 40.7.2 99.13.48 171.22.83 144.83.2 344.48.47 565.04.78 220.5-.31 420.13-.58 564.95-.78 72.09-.35 130.53-.63 171.23-.83 20.01-.21 35.65-.38 46.57-.48 5.12-.12 9.14-.2 12.11-.27 2.72-.09 4.13-.17 4.13-.26M744.902 3476.51c-11.597 2.85-67.464 16.58-175.543 43.14l1.297.2c-38.605-24.62-90.898-44.49-151.527-45.43-30.16.11-62.063 3.73-93.899 13.71-31.804 9.91-63.085 26.34-91.507 48.51-56.871 43.99-101.149 114.49-110.711 195.63-4.879 40.31-1.614 82.69 10.929 123.27 12.778 40.46 34.817 78.81 64.497 111.09 15.042 17.06 32.765 31.22 50.839 44.3 9.493 5.86 18.848 11.95 28.629 17.1l14.934 7.18 7.433 3.58 7.735 2.83c40.902 15.86 84.433 22 126.211 19.22 41.828-2.69 81.886-14.39 116.926-32.83 35.101-18.4 65.183-43.38 88.812-71.74 23.68-28.38 40.898-60.09 51.852-92.11 10.941-32.06 15.925-64.31 16.214-94.78.36-61.21-18.769-113.72-42.05-152.06l.015 1.59c48.813-88.07 73.473-132.57 78.914-142.4-5.629 9.72-31.144 53.73-81.656 140.85l-.453.78.473.81c22.699 38.14 41.195 90.08 40.507 150.41-.449 30.03-5.515 61.75-16.414 93.25-10.902 31.46-27.945 62.58-51.308 90.38-23.305 27.81-52.926 52.25-87.422 70.23-34.434 18.01-73.746 29.42-114.781 31.99-40.996 2.67-83.657-3.41-123.739-18.98l-7.578-2.77-7.293-3.52-14.629-7.05c-9.582-5.05-18.75-11.03-28.054-16.77-17.707-12.84-35.082-26.71-49.825-43.44-29.101-31.64-50.714-69.22-63.265-108.87-12.32-39.75-15.574-81.32-10.84-120.86 9.258-79.58 52.523-148.86 108.27-192.27 27.863-21.86 58.546-38.13 89.789-48 31.277-9.94 62.66-13.64 92.379-13.91 59.738.62 111.445 19.86 149.824 43.88l.617.39.676-.18c107.574-28.54 163.191-43.29 174.722-46.35" class="color1d2a30 svgShape"></path><path fill="#2764ff" d="M390.332 3898.19l9.289-146.63c.758-11.99 10.336-21.53 22.328-22.24 12.653-.76 23.672 8.54 25.063 21.13l16.281 147.37c1.23 11.16-7.594 20.88-18.82 20.72l-35.766-.5c-10.676-.15-19.047-9.2-18.375-19.85M460.816 3646.84c-6.23-18.76-26.484-28.91-45.238-22.69-18.762 6.23-28.922 26.48-22.691 45.24 6.226 18.76 26.484 28.92 45.238 22.69 18.762-6.22 28.918-26.48 22.691-45.24" class="colorf03658 svgShape"></path></g></svg></g></svg>